<mxfile host="app.diagrams.net" modified="2021-04-03T07:34:25.107Z" agent="5.0 (Macintosh; Intel Mac OS X 10_14_3) AppleWebKit/537.36 (KHTML, like Gecko) Chrome/89.0.4389.90 Safari/537.36" etag="KADuGIx36KnLTX_orQGd" version="14.5.1" type="github">
  <diagram id="jk84KoCiqGRbvonOO5nR" name="Page-1">
    <mxGraphModel dx="437" dy="490" grid="1" gridSize="10" guides="1" tooltips="1" connect="1" arrows="1" fold="1" page="1" pageScale="1" pageWidth="400" pageHeight="190" math="0" shadow="0">
      <root>
        <mxCell id="0" />
        <mxCell id="1" parent="0" />
        <mxCell id="XSbDL2rr6Gyu1OlXZJMn-2" value="&lt;font style=&quot;font-size: 30px&quot;&gt;&lt;font color=&quot;#4a919b&quot;&gt;192&lt;/font&gt;.&lt;font color=&quot;#c89932&quot;&gt;168&lt;/font&gt;.&lt;font color=&quot;#f19c99&quot;&gt;0&lt;/font&gt;.&lt;font color=&quot;#5a6eab&quot;&gt;105 / &lt;/font&gt;24&lt;/font&gt;" style="text;html=1;strokeColor=none;fillColor=none;align=center;verticalAlign=middle;whiteSpace=wrap;rounded=0;" parent="1" vertex="1">
          <mxGeometry x="60" y="32" width="290" height="50" as="geometry" />
        </mxCell>
        <mxCell id="XSbDL2rr6Gyu1OlXZJMn-3" value="&lt;span style=&quot;background-color: rgb(255 , 255 , 255)&quot;&gt;&lt;font style=&quot;font-size: 12px&quot;&gt;&lt;font color=&quot;#4a919b&quot;&gt;11000000&lt;/font&gt;.&lt;font color=&quot;#c89932&quot;&gt;10101000&lt;/font&gt;.&lt;font color=&quot;#f19c99&quot;&gt;00000000&lt;/font&gt;.&lt;font color=&quot;#5a6eab&quot;&gt;01101001&lt;/font&gt;&lt;/font&gt;&lt;/span&gt;" style="text;html=1;strokeColor=none;fillColor=none;align=center;verticalAlign=middle;whiteSpace=wrap;rounded=0;" parent="1" vertex="1">
          <mxGeometry x="24.75" y="82" width="270" height="20" as="geometry" />
        </mxCell>
        <mxCell id="XSbDL2rr6Gyu1OlXZJMn-4" value="" style="shape=curlyBracket;whiteSpace=wrap;html=1;rounded=1;direction=north;fontSize=30;strokeWidth=3;" parent="1" vertex="1">
          <mxGeometry x="51" y="102" width="170" height="20" as="geometry" />
        </mxCell>
        <mxCell id="XSbDL2rr6Gyu1OlXZJMn-5" value="&lt;font style=&quot;font-size: 20px&quot;&gt;网络号&lt;/font&gt;" style="text;html=1;strokeColor=none;fillColor=none;align=center;verticalAlign=middle;whiteSpace=wrap;rounded=0;" parent="1" vertex="1">
          <mxGeometry x="87.25" y="137" width="97.5" height="20" as="geometry" />
        </mxCell>
        <mxCell id="XSbDL2rr6Gyu1OlXZJMn-6" value="" style="shape=curlyBracket;whiteSpace=wrap;html=1;rounded=1;direction=north;fontSize=30;strokeWidth=3;" parent="1" vertex="1">
          <mxGeometry x="221" y="103" width="50" height="20" as="geometry" />
        </mxCell>
        <mxCell id="XSbDL2rr6Gyu1OlXZJMn-7" value="&lt;font style=&quot;font-size: 20px&quot;&gt;主机号&lt;/font&gt;" style="text;html=1;strokeColor=none;fillColor=none;align=center;verticalAlign=middle;whiteSpace=wrap;rounded=0;" parent="1" vertex="1">
          <mxGeometry x="197.25" y="137" width="97.5" height="20" as="geometry" />
        </mxCell>
      </root>
    </mxGraphModel>
  </diagram>
</mxfile>
